<svg width="18" height="19" viewBox="0 0 18 19" fill="none" xmlns="http://www.w3.org/2000/svg">
<path d="M17.837 3.54289C15.2538 7.08577 13.1872 10.6287 9.00838 17.0399C4.40418 10.1225 2.33759 6.57965 0.270996 3.54289C2.85424 1.51838 4.44982 1.01225 9.05402 0C13.2328 0.506127 13.1872 0.506127 17.837 3.54289Z" fill="url(#paint0_linear_5_220)"/>
<path d="M12.1539 12.2746C11.2719 13.7292 10.3898 14.2141 8.91966 15.1838C7.74356 14.2141 6.98746 14.1716 5.97942 12.7595C5.97942 10.1225 8.02075 9.11029 9.05405 9.11029C9.5707 9.11029 12.1539 9.61642 12.1539 12.2746Z" fill="white"/>
<rect width="1.0298" height="7.49924" transform="matrix(0.999987 0.00516794 -0.00396845 0.999992 8.59967 9.17285)" fill="url(#paint1_linear_5_220)"/>
<rect width="1.02467" height="18.3301" transform="matrix(0.772904 0.634522 -0.543775 0.839231 17.208 2.83362)" fill="url(#paint2_linear_5_220)"/>
<rect width="1.02451" height="18.3327" transform="matrix(0.768169 -0.640248 0.550071 0.835118 0 3.69)" fill="url(#paint3_linear_5_220)"/>
<defs>
<linearGradient id="paint0_linear_5_220" x1="9.05402" y1="0" x2="9.05402" y2="17.0399" gradientUnits="userSpaceOnUse">
<stop stop-color="white"/>
<stop offset="1" stop-color="#EFE0E0"/>
</linearGradient>
<linearGradient id="paint1_linear_5_220" x1="0.514898" y1="0" x2="0.514898" y2="7.49924" gradientUnits="userSpaceOnUse">
<stop stop-color="#F22323"/>
<stop offset="1" stop-color="#AB0707"/>
</linearGradient>
<linearGradient id="paint2_linear_5_220" x1="0.512334" y1="0" x2="0.512334" y2="18.3301" gradientUnits="userSpaceOnUse">
<stop stop-color="#F22323"/>
<stop offset="1" stop-color="#AB0707"/>
</linearGradient>
<linearGradient id="paint3_linear_5_220" x1="0.512257" y1="0" x2="0.512257" y2="18.3327" gradientUnits="userSpaceOnUse">
<stop stop-color="#F22323"/>
<stop offset="1" stop-color="#AB0707"/>
</linearGradient>
</defs>
</svg>
