<svg width="143" height="100" viewBox="0 0 143 100" fill="none" xmlns="http://www.w3.org/2000/svg">
<path d="M138.961 39.7164C122.722 58.0471 103.777 67.2124 71.2987 88.5982C33.4076 61.1022 19.8751 51.9369 3.63611 39.7164C17.1686 18.3307 33.4076 9.16533 71.2987 0C106.483 6.11022 125.429 18.3307 138.961 39.7164Z" fill="url(#paint0_linear_74_123)"/>
<path d="M101.07 67.2126C92.9503 76.3779 84.8308 79.4329 71.2983 85.5432C60.4723 79.4329 49.6463 82.4881 44.2333 70.2677C44.3806 55.1389 55.2435 47.6389 71.5377 47.6389C76.9692 47.6388 98.6949 50.1389 101.07 67.2126Z" fill="white"/>
<rect width="5.65364" height="35.3282" transform="matrix(0.782679 -0.622425 0.529461 0.848334 49.6461 55.4559)" fill="url(#paint1_linear_74_123)"/>
<rect width="5.41275" height="38.9919" transform="matrix(0.999987 0.00511195 -0.00401192 0.999992 69.15 47.6939)" fill="url(#paint2_linear_74_123)"/>
<rect width="5.64974" height="35.3506" transform="matrix(0.786426 0.617684 -0.524733 0.851267 89.8466 51.937)" fill="url(#paint3_linear_74_123)"/>
<rect width="5.94359" height="100.718" transform="matrix(0.455365 0.890305 -0.837787 0.545998 139.44 39.7165)" fill="url(#paint4_linear_74_123)"/>
<rect width="5.94359" height="100.718" transform="matrix(0.455347 -0.890314 0.837774 0.546017 0.929321 45.0081)" fill="url(#paint5_linear_74_123)"/>
<defs>
<linearGradient id="paint0_linear_74_123" x1="71.5381" y1="89.8027" x2="71.5381" y2="0.328952" gradientUnits="userSpaceOnUse">
<stop offset="0.110016" stop-color="#F5EDED"/>
<stop offset="1" stop-color="white"/>
</linearGradient>
<linearGradient id="paint1_linear_74_123" x1="2.82682" y1="0" x2="2.82682" y2="35.3282" gradientUnits="userSpaceOnUse">
<stop stop-color="#F22323"/>
<stop offset="1" stop-color="#AB0707"/>
</linearGradient>
<linearGradient id="paint2_linear_74_123" x1="2.70638" y1="0" x2="2.70638" y2="38.9919" gradientUnits="userSpaceOnUse">
<stop stop-color="#F22323"/>
<stop offset="1" stop-color="#AB0707"/>
</linearGradient>
<linearGradient id="paint3_linear_74_123" x1="2.82487" y1="0" x2="2.82487" y2="35.3506" gradientUnits="userSpaceOnUse">
<stop stop-color="#F22323"/>
<stop offset="1" stop-color="#AB0707"/>
</linearGradient>
<linearGradient id="paint4_linear_74_123" x1="2.97179" y1="0" x2="2.97179" y2="100.718" gradientUnits="userSpaceOnUse">
<stop stop-color="#F22323"/>
<stop offset="1" stop-color="#AB0707"/>
</linearGradient>
<linearGradient id="paint5_linear_74_123" x1="2.97179" y1="0" x2="2.97179" y2="100.718" gradientUnits="userSpaceOnUse">
<stop stop-color="#F22323"/>
<stop offset="1" stop-color="#AB0707"/>
</linearGradient>
</defs>
</svg>
