<svg width="26" height="21" viewBox="0 0 26 21" fill="none" xmlns="http://www.w3.org/2000/svg">
<path d="M25.4135 8.16551C22.4237 11.8316 18.9356 13.6647 12.9559 17.9419C5.97964 12.4427 3.48812 10.6096 0.498291 8.16551C2.98981 3.88836 5.97964 2.05529 12.9559 0.222229C19.4339 1.44427 22.922 3.88836 25.4135 8.16551Z" fill="url(#paint0_linear_5_204)"/>
<path d="M18.4372 13.6647C16.9423 15.4978 15.4474 16.1088 12.9559 17.3309C10.9627 16.1088 8.96945 16.7198 7.97284 14.2758C7.99997 11.25 9.99997 9.75 13 9.75C14 9.75 18 10.25 18.4372 13.6647Z" fill="white"/>
<rect width="1.07663" height="6.913" transform="matrix(0.756736 -0.65372 0.498174 0.867077 8.96948 11.3134)" fill="url(#paint1_linear_5_204)"/>
<rect width="0.996615" height="7.79837" transform="matrix(0.999985 0.00555301 -0.00369325 0.999993 12.5604 9.76099)" fill="url(#paint2_linear_5_204)"/>
<rect width="1.07536" height="6.92014" transform="matrix(0.760736 0.649062 -0.493529 0.869729 16.3712 10.6096)" fill="url(#paint3_linear_5_204)"/>
<rect width="1.16977" height="19.0347" transform="matrix(0.425987 0.904729 -0.816173 0.577808 25.5017 8.16553)" fill="url(#paint4_linear_5_204)"/>
<rect width="1.16977" height="19.0347" transform="matrix(0.425987 -0.904729 0.816173 0.577808 0 9.22388)" fill="url(#paint5_linear_5_204)"/>
<defs>
<linearGradient id="paint0_linear_5_204" x1="13" y1="18.1828" x2="13" y2="0.288019" gradientUnits="userSpaceOnUse">
<stop offset="0.110016" stop-color="#F5EDED"/>
<stop offset="1" stop-color="white"/>
</linearGradient>
<linearGradient id="paint1_linear_5_204" x1="0.538315" y1="0" x2="0.538315" y2="6.913" gradientUnits="userSpaceOnUse">
<stop stop-color="#F22323"/>
<stop offset="1" stop-color="#AB0707"/>
</linearGradient>
<linearGradient id="paint2_linear_5_204" x1="0.498307" y1="0" x2="0.498307" y2="7.79837" gradientUnits="userSpaceOnUse">
<stop stop-color="#F22323"/>
<stop offset="1" stop-color="#AB0707"/>
</linearGradient>
<linearGradient id="paint3_linear_5_204" x1="0.537678" y1="0" x2="0.537678" y2="6.92014" gradientUnits="userSpaceOnUse">
<stop stop-color="#F22323"/>
<stop offset="1" stop-color="#AB0707"/>
</linearGradient>
<linearGradient id="paint4_linear_5_204" x1="0.584883" y1="0" x2="0.584883" y2="19.0347" gradientUnits="userSpaceOnUse">
<stop stop-color="#F22323"/>
<stop offset="1" stop-color="#AB0707"/>
</linearGradient>
<linearGradient id="paint5_linear_5_204" x1="0.584883" y1="0" x2="0.584883" y2="19.0347" gradientUnits="userSpaceOnUse">
<stop stop-color="#F22323"/>
<stop offset="1" stop-color="#AB0707"/>
</linearGradient>
</defs>
</svg>
